<svg width="19" height="18" viewBox="0 0 19 18" fill="none" xmlns="http://www.w3.org/2000/svg">
<path fill-rule="evenodd" clip-rule="evenodd" d="M9.52254 0.270752C7.205 0.270752 6.91415 0.280885 6.00392 0.322308C5.09547 0.363908 4.47537 0.507732 3.93279 0.718757C3.37154 0.936714 2.89545 1.22827 2.42113 1.70277C1.94646 2.17708 1.6549 2.65318 1.43623 3.21425C1.22467 3.75701 1.08067 4.37728 1.03978 5.28538C0.99907 6.19561 0.988403 6.48664 0.988403 8.80417C0.988403 11.1217 0.998715 11.4117 1.03996 12.3219C1.08174 13.2304 1.22556 13.8504 1.43641 14.393C1.65454 14.9543 1.9461 15.4304 2.4206 15.9047C2.89473 16.3794 3.37083 16.6716 3.93172 16.8896C4.47466 17.1006 5.09493 17.2444 6.00321 17.286C6.91344 17.3275 7.20411 17.3376 9.52147 17.3376C11.8392 17.3376 12.1291 17.3275 13.0394 17.286C13.9478 17.2444 14.5686 17.1006 15.1116 16.8896C15.6726 16.6716 16.148 16.3794 16.6222 15.9047C17.0968 15.4304 17.3884 14.9543 17.6071 14.3932C17.8168 13.8504 17.9608 13.2302 18.0035 12.3221C18.0444 11.4118 18.0551 11.1217 18.0551 8.80417C18.0551 6.48664 18.0444 6.19579 18.0035 5.28556C17.9608 4.37711 17.8168 3.75701 17.6071 3.21443C17.3884 2.65318 17.0968 2.17708 16.6222 1.70277C16.1475 1.2281 15.6728 0.936537 15.111 0.718757C14.567 0.507732 13.9466 0.363908 13.0381 0.322308C12.1279 0.280885 11.8381 0.270752 9.51987 0.270752H9.52254ZM8.75698 1.80852C8.98418 1.80817 9.2377 1.80852 9.5225 1.80852C11.8009 1.80852 12.071 1.8167 12.9707 1.85759C13.8027 1.89563 14.2543 2.03466 14.5551 2.15146C14.9533 2.30613 15.2372 2.49102 15.5357 2.78969C15.8344 3.08836 16.0193 3.3728 16.1743 3.77103C16.2911 4.07148 16.4303 4.52304 16.4682 5.35505C16.5091 6.25461 16.518 6.52484 16.518 8.8022C16.518 11.0796 16.5091 11.3498 16.4682 12.2493C16.4301 13.0814 16.2911 13.5329 16.1743 13.8334C16.0196 14.2316 15.8344 14.5151 15.5357 14.8136C15.237 15.1123 14.9535 15.2972 14.5551 15.4519C14.2546 15.5692 13.8027 15.7079 12.9707 15.7459C12.0711 15.7868 11.8009 15.7957 9.5225 15.7957C7.2439 15.7957 6.97385 15.7868 6.07429 15.7459C5.24228 15.7075 4.79072 15.5685 4.48974 15.4517C4.09151 15.297 3.80706 15.1121 3.50839 14.8135C3.20972 14.5148 3.02483 14.2311 2.86981 13.8326C2.75301 13.5322 2.61381 13.0806 2.57594 12.2486C2.53505 11.3491 2.52687 11.0788 2.52687 8.80006C2.52687 6.52128 2.53505 6.25248 2.57594 5.35291C2.61398 4.52091 2.75301 4.06935 2.86981 3.76854C3.02448 3.37032 3.20972 3.08587 3.50839 2.7872C3.80706 2.48853 4.09151 2.30364 4.48974 2.14861C4.79054 2.03128 5.24228 1.89261 6.07429 1.85439C6.86149 1.81883 7.16656 1.80817 8.75698 1.80639V1.80852ZM14.0776 3.22543C13.5122 3.22543 13.0536 3.68357 13.0536 4.24908C13.0536 4.81442 13.5122 5.27309 14.0776 5.27309C14.6429 5.27309 15.1016 4.81442 15.1016 4.24908C15.1016 3.68374 14.6429 3.22543 14.0776 3.22543ZM9.52255 4.42188C7.10244 4.42188 5.14028 6.38404 5.14028 8.80415C5.14028 11.2243 7.10244 13.1855 9.52255 13.1855C11.9427 13.1855 13.9041 11.2243 13.9041 8.80415C13.9041 6.38404 11.9427 4.42188 9.52255 4.42188ZM9.52252 5.95968C11.0934 5.95968 12.367 7.23311 12.367 8.80415C12.367 10.375 11.0934 11.6486 9.52252 11.6486C7.95148 11.6486 6.67804 10.375 6.67804 8.80415C6.67804 7.23311 7.95148 5.95968 9.52252 5.95968Z" fill="white"/>
</svg>
