<svg width="19" height="18" viewBox="0 0 19 18" fill="none" xmlns="http://www.w3.org/2000/svg">
<path fill-rule="evenodd" clip-rule="evenodd" d="M18.0551 8.79225C18.0551 9.36935 17.9963 9.94564 17.8809 10.5074C17.7684 11.0558 17.6017 11.5942 17.3834 12.1089C17.1701 12.6145 16.9055 13.1017 16.5963 13.556C16.2917 14.0075 15.9408 14.4311 15.5554 14.8172C15.1691 15.2017 14.7441 15.5516 14.2928 15.8574C13.837 16.1645 13.3491 16.4287 12.8432 16.643C12.3277 16.8602 11.7881 17.0266 11.2402 17.139C10.6777 17.2547 10.0993 17.3137 9.52135 17.3137C8.94299 17.3137 8.36463 17.2547 7.80294 17.139C7.25417 17.0266 6.71456 16.8602 6.19952 16.643C5.69368 16.4287 5.2053 16.1645 4.74945 15.8574C4.29818 15.5516 3.87316 15.2017 3.48772 14.8172C3.10188 14.4311 2.75101 14.0075 2.44599 13.556C2.13848 13.1017 1.87345 12.6144 1.65928 12.1089C1.44091 11.5942 1.27384 11.0558 1.16092 10.5074C1.04675 9.94564 0.988403 9.36935 0.988403 8.79225C0.988403 8.21473 1.04672 7.6372 1.16095 7.07669C1.27388 6.52828 1.44094 5.98904 1.65932 5.47519C1.87348 4.96923 2.13851 4.48159 2.44603 4.0272C2.75104 3.57535 3.10191 3.15258 3.48775 2.76602C3.87319 2.38154 4.29821 2.03248 4.74948 1.72707C5.20533 1.41873 5.69371 1.15455 6.19956 0.939829C6.71459 0.722173 7.25417 0.555346 7.80297 0.44385C8.36467 0.329018 8.94303 0.270752 9.52139 0.270752C10.0993 0.270752 10.6777 0.329018 11.2402 0.44385C11.7881 0.555379 12.3277 0.722206 12.8432 0.939829C13.3491 1.15452 13.837 1.41873 14.2929 1.72707C14.7441 2.03248 15.1692 2.38154 15.5554 2.76602C15.9409 3.15258 16.2917 3.57535 16.5963 4.0272C16.9055 4.48159 17.1701 4.96927 17.3834 5.47519C17.6017 5.98904 17.7684 6.52828 17.8809 7.07669C17.9963 7.6372 18.0551 8.21473 18.0551 8.79225ZM6.41199 2.21013C4.37978 3.16841 2.86304 5.03829 2.39009 7.29183C2.58221 7.2935 5.61903 7.33179 9.11795 6.40346C7.85665 4.16573 6.50908 2.33957 6.41199 2.21013ZM9.72172 7.52403C5.96946 8.64576 2.36884 8.56505 2.23968 8.56008C2.23758 8.63829 2.23384 8.714 2.23384 8.79225C2.23384 10.6617 2.94012 12.366 4.10102 13.6547C4.09851 13.6509 6.09281 10.1179 10.0255 8.84801C10.1205 8.81639 10.2172 8.78808 10.313 8.76063C10.1301 8.34706 9.93048 7.93263 9.72172 7.52403ZM14.3341 3.33067C13.0511 2.20097 11.3664 1.51571 9.52133 1.51571C8.92921 1.51571 8.35459 1.58729 7.80415 1.7196C7.9133 1.86608 9.28215 3.67937 10.5284 5.96449C13.2782 4.93511 14.3161 3.35729 14.3341 3.33067ZM10.8098 9.96645C10.7935 9.97182 10.7773 9.97645 10.7614 9.98226C6.4617 11.479 5.05756 14.4955 5.04237 14.5284C6.27954 15.4892 7.83129 16.0688 9.52138 16.0688C10.5306 16.0688 11.4919 15.8636 12.3665 15.4921C12.2586 14.8563 11.8352 12.6277 10.8098 9.96645ZM13.5936 14.8272C15.2299 13.7246 16.3921 11.9737 16.7163 9.9456C16.5663 9.89734 14.5274 9.25281 12.1752 9.62939C13.1311 12.2524 13.5194 14.3886 13.5936 14.8272ZM11.0894 7.04883C11.2585 7.39586 11.4223 7.74906 11.5735 8.10402C11.6273 8.23136 11.6798 8.3562 11.7311 8.481C14.2345 8.16643 16.7009 8.69569 16.8063 8.7173C16.7897 6.99223 16.1717 5.40901 15.1492 4.16951C15.1354 4.18902 13.9666 5.87544 11.0894 7.04883Z" fill="white"/>
</svg>
