<svg width="17" height="18" viewBox="0 0 17 18" fill="none" xmlns="http://www.w3.org/2000/svg">
<path fill-rule="evenodd" clip-rule="evenodd" d="M16.5521 0.77389C16.7558 0.977619 16.8248 1.28004 16.7296 1.55198L11.4796 16.552C11.378 16.8422 11.1096 17.0411 10.8023 17.0536C10.495 17.0661 10.2113 16.8898 10.0864 16.6088L7.20353 10.1224L0.717128 7.23958C0.436118 7.11469 0.25982 6.83091 0.272356 6.52365C0.284891 6.21639 0.483719 5.94791 0.773969 5.84633L15.774 0.596326C16.0459 0.501147 16.3483 0.570162 16.5521 0.77389ZM8.66629 9.72032L10.6888 14.2709L14.2281 4.15848L8.66629 9.72032ZM13.1675 3.09782L3.05504 6.63717L7.60563 8.65966L13.1675 3.09782Z" fill="#FF5722"/>
</svg>
