<svg width="19" height="14" viewBox="0 0 19 14" fill="none" xmlns="http://www.w3.org/2000/svg">
<path fill-rule="evenodd" clip-rule="evenodd" d="M16.1895 1.30372C16.9238 1.50523 17.5021 2.09898 17.6984 2.85298C18.0551 4.21953 18.0551 7.07083 18.0551 7.07083C18.0551 7.07083 18.0551 9.92204 17.6984 11.2887C17.5021 12.0427 16.9238 12.6364 16.1895 12.838C14.8587 13.2042 9.52174 13.2042 9.52174 13.2042C9.52174 13.2042 4.18482 13.2042 2.85391 12.838C2.11955 12.6364 1.54123 12.0427 1.34496 11.2887C0.988403 9.92204 0.988403 7.07083 0.988403 7.07083C0.988403 7.07083 0.988403 4.21953 1.34496 2.85298C1.54123 2.09898 2.11955 1.50523 2.85391 1.30372C4.18482 0.9375 9.52174 0.9375 9.52174 0.9375C9.52174 0.9375 14.8587 0.9375 16.1895 1.30372ZM7.92175 4.67078V10.0041L12.1884 7.33754L7.92175 4.67078Z" fill="white"/>
</svg>
